Coordinates
version=1
nRows=19
nColumns=36
inDegrees=yes

Units are S.I. units (second, meters, Newtons, ...)
If the header above contains a line with 'inDegrees', this indicates whether rotational values are in degrees (yes) or radians (no).

endheader
time	pelvis_tilt	pelvis_list	pelvis_rotation	pelvis_tx	pelvis_ty	pelvis_tz	hip_flexion_r	hip_adduction_r	hip_rotation_r	knee_angle_r	knee_angle_r_beta	ankle_angle_r	subtalar_angle_r	mtp_angle_r	hip_flexion_l	hip_adduction_l	hip_rotation_l	knee_angle_l	knee_angle_l_beta	ankle_angle_l	subtalar_angle_l	mtp_angle_l	lumbar_extension	lumbar_bending	lumbar_rotation	arm_flex_r	arm_add_r	arm_rot_r	elbow_flex_r	pro_sup_r	arm_flex_l	arm_add_l	arm_rot_l	elbow_flex_l	pro_sup_l
      7.12000000	     -6.80166838	     -2.48456805	     -0.46156392	     -0.27778868	      0.96038181	     -0.68010739	     12.34848533	     -5.25077625	     -4.32099994	      5.43306550	      0.09482488	     -0.57787719	     -6.45695164	     -7.49999987	     15.02881496	     -9.82221804	    -10.64231444	      9.50276256	      0.16585449	      2.92440559	      1.62029733	     -7.49999987	     -4.93757157	      0.10821669	     -2.68258219	     -2.54859630	     -9.65642280	      7.13771838	    113.93378400	     96.52077002	    -10.46866616	     -5.62865797	     -5.09607878	    124.07264221	    102.52963868
      7.13000000	     -7.02948941	     -2.53595740	     -0.50205416	     -0.27775363	      0.95979147	     -0.67992258	     12.53180721	     -5.13119945	     -3.66789214	      5.30401685	      0.09257256	     -1.20168305	     -7.82977215	     -7.49999987	     15.37974978	     -9.96218587	    -10.91141970	      9.73893349	      0.16997645	      3.30070552	      2.16049205	     -7.49999987	     -4.71488676	      0.09994451	     -2.68018595	     -2.49984504	     -9.66484029	      6.88989498	    113.57006478	     99.60978966	    -10.54755887	     -5.44045886	     -5.49038560	    123.56270673	    105.59894376
      7.14000000	     -7.13718315	     -2.58511973	     -0.46263822	     -0.27764158	      0.95947062	     -0.67991504	     12.66551556	     -5.11106651	     -4.04373318	      5.38561703	      0.09399675	     -0.69984997	     -6.98502459	     -7.49999987	     15.52903328	    -10.00981658	    -10.73801064	      9.78457950	      0.17077313	      3.23428753	      1.96558200	     -7.49999987	     -4.65779303	      0.10814075	     -2.64619311	     -2.60394197	     -9.61340577	      6.70491430	    113.78345076	     97.51014341	    -10.53648996	     -5.28703628	     -5.38139840	    123.63391350	    103.27040834
      7.15000000	     -7.18716906	     -2.60089716	     -0.50614002	     -0.27757267	      0.95934022	     -0.67977531	     12.77892010	     -5.10755539	     -4.24041399	      5.48850728	      0.09579252	     -0.63352015	     -6.89428357	     -7.49999987	     15.61020811	    -10.09046792	    -11.11848729	      9.86841147	      0.17223627	      3.43429028	      2.34494297	     -7.49999987	     -4.64557938	      0.10662229	     -2.51836404	     -2.61694341	     -9.54532363	      6.30945279	    113.42105551	    101.18024255	    -10.39656152	     -5.09043185	     -5.68782113	    122.95552218	    106.21722269
      7.16000000	     -7.23574020	     -2.63940599	     -0.48073694	     -0.27764968	      0.95923278	     -0.67966060	     12.86021636	     -5.08814236	     -4.41995587	      5.53235128	      0.09655775	     -0.74246698	     -6.88481087	     -7.49999987	     15.72152035	    -10.17982039	    -11.32365017	      9.95915935	      0.17382012	      3.61342011	      2.76222502	     -7.49999987	     -4.70096406	      0.11257764	     -2.69848805	     -2.40621512	     -9.50955788	      6.45940439	    113.34492870	     99.73598659	    -10.44004617	     -4.89882598	     -5.97214154	    123.05136279	    104.95293807
      7.17000000	     -7.23121057	     -2.64316196	     -0.44418750	     -0.27775086	      0.95925725	     -0.67963634	     12.96677728	     -5.15097430	     -5.04881570	      5.76292792	      0.10058207	     -0.19949574	     -5.80614771	     -7.49999987	     15.73095611	    -10.18571586	    -11.40911841	      9.93545122	      0.17340634	      3.53377003	      2.78954372	     -7.49999987	     -4.82975425	      0.09490035	     -2.60899690	     -2.45969427	     -9.39012212	      6.05730534	    113.29424275	    101.26289133	    -10.20794585	     -4.81247241	     -6.03380902	    122.71005947	    106.37927973
      7.18000000	     -7.28535568	     -2.60616848	     -0.42012918	     -0.27794068	      0.95923921	     -0.67958484	     13.07048355	     -5.21286341	     -5.22109003	      5.80540342	      0.10132340	     -0.20222594	     -5.66870449	     -7.49999987	     15.78030883	    -10.15339215	    -11.49497757	      9.87902374	      0.17242149	      3.41059014	      2.79790474	     -7.49999987	     -4.89068379	      0.01779062	     -2.58043664	     -2.42107548	     -9.31896077	      5.94870545	    113.35501573	    100.61334609	    -10.05147619	     -4.76631042	     -6.03745380	    122.69390172	    105.84109951
      7.19000000	     -7.41074921	     -2.59927997	     -0.39393911	     -0.27817059	      0.95913404	     -0.67953926	     13.26003230	     -5.23197108	     -5.37649347	      5.88635950	      0.10273635	     -0.17505758	     -5.60675088	     -7.49999987	     15.91229496	    -10.15244451	    -11.58640099	      9.81037902	      0.17122341	      3.35587044	      2.84459968	     -7.49999987	     -4.82047480	     -0.00205866	     -2.61148703	     -2.38704021	     -9.23530236	      5.83937583	    113.35806688	    100.27581914	     -9.93336445	     -4.76218030	     -6.03196582	    122.63418478	    105.64732193
      7.20000000	     -7.34530694	     -2.54984645	     -0.37913283	     -0.27848161	      0.95931594	     -0.67947807	     13.23369971	     -5.30172579	     -5.54620880	      5.92440442	      0.10340036	     -0.09943277	     -5.33737698	     -7.49999987	     15.77469656	    -10.09471771	    -11.62849991	      9.63624475	      0.16818420	      3.25174680	      3.04131443	     -7.49999987	     -5.05232297	     -0.08403571	     -2.59369608	     -2.27931944	     -9.16756429	      5.74667366	    113.52424825	     99.44882598	     -9.68149864	     -4.73244504	     -6.01891121	    122.80893167	    104.80251803
      7.21000000	     -7.37006821	     -2.50438461	     -0.37456260	     -0.27872731	      0.95937873	     -0.67936881	     13.30168152	     -5.35914987	     -5.67069709	      5.96164843	      0.10405039	     -0.09606371	     -5.17387433	     -7.49999987	     15.73021157	    -10.04125919	    -11.74138469	      9.45584349	      0.16503560	      3.15608305	      3.18113754	     -7.49999987	     -5.10380164	     -0.16717168	     -2.58154984	     -2.19022343	     -9.13410975	      5.67856365	    113.56267035	     98.89391201	     -9.51192894	     -4.71717170	     -5.99038617	    122.85256491	    104.42222231
      7.22000000	     -7.41729184	     -2.45355833	     -0.37055496	     -0.27902439	      0.95941418	     -0.67925245	     13.39458848	     -5.41292527	     -5.78061817	      5.99372473	      0.10461023	     -0.04649559	     -5.00200726	     -7.49999987	     15.72312680	     -9.98657453	    -11.87626665	      9.29966748	      0.16230982	      3.10329063	      3.37336746	     -7.49999987	     -5.12062547	     -0.24452941	     -2.58009993	     -2.08990756	     -9.12190511	      5.66769550	    113.59840276	     98.32169958	     -9.37414890	     -4.76339120	     -5.90541518	    122.96167589	    103.91995255
      7.23000000	     -7.51343478	     -2.40047884	     -0.38222457	     -0.27932592	      0.95938220	     -0.67906136	     13.56067412	     -5.46059815	     -5.88011562	      6.06027681	      0.10577178	      0.07673788	     -4.82655089	     -7.49999987	     15.76372760	     -9.94116580	    -12.05391817	      9.14399082	      0.15959275	      3.06806587	      3.65464303	     -7.49999987	     -5.06527027	     -0.32234316	     -2.58193612	     -1.96874640	     -9.09277421	      5.70818099	    113.63953730	     97.54168884	     -9.24534548	     -4.88908127	     -5.78064020	    123.09506085	    103.04913167
      7.24000000	     -7.67945930	     -2.36534875	     -0.40173900	     -0.27959939	      0.95920824	     -0.67888553	     13.77532119	     -5.47223644	     -5.73391773	      6.11088629	      0.10665509	      0.00758348	     -5.15074408	     -7.49999987	     15.91147256	     -9.93031337	    -12.32676578	      9.05322297	      0.15800855	      3.16307431	      4.14078478	     -7.49999987	     -4.92689526	     -0.37677833	     -2.60710846	     -1.87482897	     -9.11344628	      5.57486100	    113.35319469	    101.38349914	     -9.12380342	     -4.95235477	     -5.98380352	    122.87558262	    105.93735643
      7.25000000	     -7.93052091	     -2.35351376	     -0.37898045	     -0.27999788	      0.95886462	     -0.67874711	     14.10691739	     -5.48286143	     -5.66947811	      6.19382637	      0.10810266	      0.16146996	     -4.98220311	     -7.49999987	     16.15281543	     -9.88434358	    -12.10173664	      8.92355246	      0.15574537	      3.12085983	      3.97342630	     -7.49999987	     -4.70897148	     -0.40048861	     -2.62860090	     -1.83542766	     -9.16425093	      5.62823046	    113.59626638	    100.19384683	     -8.97565767	     -5.03161504	     -5.84155918	    123.13349990	    104.69689214
      7.26000000	     -8.00790442	     -2.29696561	     -0.38566312	     -0.28032881	      0.95877485	     -0.67868913	     14.22495334	     -5.53617506	     -5.50929290	      6.21447668	      0.10846308	      0.14198454	     -5.09253268	     -7.49999987	     16.17328167	     -9.79084216	    -11.96204291	      8.76816787	      0.15303340	      2.96592611	      3.77526594	     -7.49999987	     -4.67367135	     -0.47449105	     -2.62277497	     -1.69357520	     -9.23616829	      5.66644602	    113.67575648	     99.32197903	     -8.72403983	     -5.07786123	     -5.78646733	    123.20271313	    104.07831783
      7.27000000	     -8.19587699	     -2.25574542	     -0.40220908	     -0.28078859	      0.95848229	     -0.67862861	     14.47819368	     -5.54032945	     -4.97324255	      6.24732563	      0.10903640	     -0.24023133	     -6.04296203	     -7.49999987	     16.38704212	     -9.74592535	    -11.93703183	      8.73955905	      0.15253408	      2.95756669	      3.75496269	     -7.49999987	     -4.51478892	     -0.52311319	     -2.73892401	     -1.47369897	     -9.29071109	      5.78866706	    113.57550360	     99.88485133	     -8.60715217	     -5.12395428	     -5.94380915	    123.20494072	    104.85171744
      7.28000000	     -8.34332971	     -2.21535260	     -0.35986114	     -0.28120484	      0.95820040	     -0.67875212	     14.74508983	     -5.61666239	     -4.92769114	      6.44053793	      0.11240859	      0.05796531	     -5.79189203	     -7.49999987	     16.56759815	     -9.66108960	    -11.63125617	      8.71626605	      0.15212754	      2.94792379	      3.56875146	     -7.49999987	     -4.44055704	     -0.56190045	     -2.74832536	     -1.41787231	     -9.37595086	      5.80929419	    113.85670294	     98.57055281	     -8.41988237	     -5.18261233	     -5.74012843	    123.45800257	    103.36466838
      7.29000000	     -8.39929604	     -2.15286522	     -0.33032936	     -0.28163726	      0.95806427	     -0.67884976	     14.92439132	     -5.70291739	     -4.77754171	      6.62611639	      0.11564755	      0.08998153	     -5.94589634	     -7.49999987	     16.60206878	     -9.53725382	    -11.26928609	      8.58675542	      0.14986715	      2.67246607	      3.07634158	     -7.49999987	     -4.44982605	     -0.61830793	     -2.82348734	     -1.20573234	     -9.51041990	      6.02411418	    114.10581265	     95.30965801	     -8.24748776	     -5.26268529	     -5.49435147	    123.82262911	     99.94129654
      7.30000000	     -8.59545956	     -2.12440474	     -0.30254462	     -0.28211162	      0.95763192	     -0.67892951	     15.31483308	     -5.75741165	     -4.60499809	      6.94450891	      0.12120455	      0.25123449	     -6.12780414	     -7.49999987	     16.89576277	     -9.48113406	    -10.88149032	      8.68675008	      0.15161239	      2.72502008	      2.74710766	     -7.49999987	     -4.30113838	     -0.61196429	     -2.79905386	     -1.19748598	     -9.64072779	      6.08696081	    114.50162296	     92.92057727	     -8.10280118	     -5.35274798	     -5.26947820	    124.12331802	     97.84871664
